<?xml version="1.0" encoding="iso-8859-1"?>
<!-- Generator: Adobe Illustrator 25.4.0, SVG Export Plug-In . SVG Version: 6.00 Build 0)  -->
<svg version="1.1" id="Layer_1" xmlns="http://www.w3.org/2000/svg" xmlns:xlink="http://www.w3.org/1999/xlink" x="0px" y="0px"
	 viewBox="0 0 244.259 253.881" style="enable-background:new 0 0 244.259 253.881;" xml:space="preserve">
<g>
	
		<path style="fill:#EA4F87;stroke:#372772;stroke-width:9.49;stroke-linecap:round;stroke-linejoin:round;stroke-miterlimit:10;" d="
		M72.039,241.466c6.618,5.661,15.635,8.139,24.327,7.598s17.055-3.93,24.272-8.805c22.036-14.884,32.771-44.644,25.31-70.168
		c-7.461-25.524-32.535-44.816-59.118-45.488l2.4,0.791c-12.603-13.062-34.8-14.798-50.776-6.182s-26.405,25.352-30.959,42.923
		c-3.817,14.727-3.904,30.633,1.282,44.935c5.186,14.302,15.926,26.815,29.943,32.729c14.017,5.914,31.205,4.606,43.348-4.559"/>
	
		<path style="fill:#EA4F87;stroke:#372772;stroke-width:9.49;stroke-linecap:round;stroke-linejoin:round;stroke-miterlimit:10;" d="
		M183.535,236.139c11.585,7.804,28.246,4.325,38.467-5.196c10.221-9.521,14.947-23.647,16.702-37.505
		c2.739-21.627-1.301-44.804-14.719-61.985s-37.163-26.921-57.98-20.447l0,0c-20.321,4.455-39.413,15.359-50.55,32.93
		s-14.925,39.646-10.282,59.925c2.743,11.978,8.461,23.472,17.436,31.865c8.975,8.393,21.376,13.422,33.607,12.243
		c12.231-1.179,23.92-9.065,28.39-20.511"/>
	<path style="fill:none;stroke:#372772;stroke-width:9.49;stroke-linecap:round;stroke-linejoin:round;stroke-miterlimit:10;" d="
		M84.309,129.901c30.761-19.33,58.11-57.167,70.139-91.449c-1.873,24.525,3.523,49.561,15.334,71.137"/>
	
		<path style="fill:#EA4F87;stroke:#372772;stroke-width:9.49;stroke-linecap:round;stroke-linejoin:round;stroke-miterlimit:10;" d="
		M98.401,58.582c6.718-10.684,15.776-20.266,27.265-25.487c11.49-5.221,25.623-5.529,36.327,1.157
		c14.032,8.765,18.973,29.379,10.438,43.552c-6.429,10.675-18.693,16.737-30.996,18.72c-12.303,1.983-24.863,0.45-37.256-0.858
		c-12.393-1.307-25.071-2.368-37.193,0.52c-5.715,1.362-12.434,3.376-16.907-0.432c-2.66-2.264-3.583-6.068-3.212-9.541
		c0.371-3.473,1.849-6.717,3.307-9.891c4.857-10.574,9.713-21.147,14.57-31.721C70.103,32.933,75.83,20.792,86.005,12.96
		c9.472-7.291,22.335-9.969,33.93-7.063s21.675,11.332,26.59,22.228"/>
	
		<ellipse transform="matrix(0.5574 -0.8302 0.8302 0.5574 -103.3791 104.994)" style="fill:#372772;" cx="46.788" cy="149.46" rx="15.763" ry="12.472"/>
	<ellipse style="fill:#372772;" cx="136.594" cy="162.768" rx="11.712" ry="15.797"/>
</g>
</svg>
