<?xml version="1.0" encoding="iso-8859-1"?>
<!-- Generator: Adobe Illustrator 25.4.0, SVG Export Plug-In . SVG Version: 6.00 Build 0)  -->
<svg version="1.1" id="Layer_1" xmlns="http://www.w3.org/2000/svg" xmlns:xlink="http://www.w3.org/1999/xlink" x="0px" y="0px"
	 viewBox="0 0 225.554 236.08" style="enable-background:new 0 0 225.554 236.08;" xml:space="preserve">
<g>
	
		<path style="fill:#EA4F87;stroke:#372772;stroke-width:9.49;stroke-linecap:round;stroke-linejoin:round;stroke-miterlimit:10;" d="
		M166.656,108.96c11.999-2.388,24.93-4.683,36.074,0.364c13.214,5.984,20.441,22.123,17.381,36.303
		c-3.06,14.18-15.34,25.543-29.455,28.887c-14.116,3.344-29.487-0.842-40.942-9.743c-7.336-5.701-13.096-13.049-18.88-20.241
		c-3.031-3.769-6.009-7.594-9.284-11.158c-2.266-2.467-8.599-6.305-9.829-9.131c-2.235-5.136,1.315-4.539,6.529-5.646
		c5.449-1.157,10.932-2.176,16.396-3.263C145.316,113.208,155.986,111.084,166.656,108.96z"/>
	
		<path style="fill:#EA4F87;stroke:#372772;stroke-width:9.49;stroke-linecap:round;stroke-linejoin:round;stroke-miterlimit:10;" d="
		M88.854,95.557C77.7,81.032,70.353,62.025,53.824,54.135c-13.084-6.245-30.04-3.054-39.959,7.519S1.844,89.354,8.911,102.012
		c6.472,11.592,19.264,18.554,32.29,21.119s26.464,1.319,39.68,0.064c7.535-0.715,28.564,1.031,33.319-5.15
		C105.906,110.22,96.122,105.003,88.854,95.557z"/>
	
		<path style="fill:#EA4F87;stroke:#372772;stroke-width:9.49;stroke-linecap:round;stroke-linejoin:round;stroke-miterlimit:10;" d="
		M74.423,146.023c-13.394,9.206-26.499,21.368-29.119,37.409c-2.659,16.281,7.726,33.723,23.307,39.143s34.55-1.81,42.569-16.226
		c6.126-11.012,5.957-24.31,5.515-36.904c-0.246-7.024,1.71-48.099-4.332-49.936c-4.357-1.325-13.808,10.053-17.031,12.432
		C88.569,136.933,81.346,141.264,74.423,146.023z"/>
	
		<path style="fill:#EA4F87;stroke:#372772;stroke-width:9.49;stroke-linecap:round;stroke-linejoin:round;stroke-miterlimit:10;" d="
		M139.262,96.896c11.76-10.298,24.011-21.316,28.948-36.147c4.678-14.056,1.631-30.505-8.042-41.725
		c-9.674-11.219-25.71-16.656-40.137-13.293s-26.503,15.536-29.416,30.06c-2.538,12.653,1.474,25.6,5.44,37.881
		c2.47,7.649,4.94,15.299,7.41,22.948c1.2,3.716,4.215,20.965,7.488,22.568C116.196,121.756,134.795,100.387,139.262,96.896z"/>
	<path style="fill:none;stroke:#372772;stroke-width:9.49;stroke-linecap:round;stroke-linejoin:round;stroke-miterlimit:10;" d="
		M121.656,136.537c-1.646,11.449,2.989,22.924,9.122,32.732c6.132,9.807,13.833,18.61,19.393,28.752
		c5.56,10.142,8.865,22.317,5.282,33.315"/>
	
		<path style="fill:#EA4F87;stroke:#372772;stroke-width:9.49;stroke-linecap:round;stroke-linejoin:round;stroke-miterlimit:10;" d="
		M124.848,46.752c-4.603,11.554-4.788,24.305-5.633,36.713c-0.845,12.409-2.618,25.335-9.753,35.522"/>
	
		<path style="fill:#EA4F87;stroke:#372772;stroke-width:9.49;stroke-linecap:round;stroke-linejoin:round;stroke-miterlimit:10;" d="
		M49.403,94.754c19.66,7.638,39.32,15.277,58.98,22.915"/>
	
		<path style="fill:#EA4F87;stroke:#372772;stroke-width:9.49;stroke-linecap:round;stroke-linejoin:round;stroke-miterlimit:10;" d="
		M187.094,141.551c-4.275-4.68-11.063-6.082-17.398-6.301s-12.791,0.473-18.934-1.088c-5.722-1.454-10.761-4.759-16.003-7.475
		s-11.134-4.917-16.948-3.891"/>
	
		<path style="fill:#EA4F87;stroke:#372772;stroke-width:9.49;stroke-linecap:round;stroke-linejoin:round;stroke-miterlimit:10;" d="
		M82.528,183.843c-1.886-7.735,3.854-14.995,8.613-21.378c9.985-13.391,17.127-28.893,20.817-45.184"/>
</g>
</svg>
