<?xml version="1.0" encoding="iso-8859-1"?>
<!-- Generator: Adobe Illustrator 25.4.0, SVG Export Plug-In . SVG Version: 6.00 Build 0)  -->
<svg version="1.1" id="Layer_1" xmlns="http://www.w3.org/2000/svg" xmlns:xlink="http://www.w3.org/1999/xlink" x="0px" y="0px"
	 viewBox="0 0 315.418 255.002" style="enable-background:new 0 0 315.418 255.002;" xml:space="preserve">
<g>
	
		<path style="fill:#372772;stroke:#FFE7BB;stroke-width:9.49;stroke-linecap:round;stroke-linejoin:round;stroke-miterlimit:10;" d="
		M140.839,0"/>
	<g>
		
			<ellipse transform="matrix(0.1687 -0.9857 0.9857 0.1687 -184.708 249.8098)" style="fill:#EA4F87;stroke:#372772;stroke-width:9.49;stroke-linecap:round;stroke-linejoin:round;stroke-miterlimit:10;" cx="55.752" cy="234.413" rx="13.929" ry="46.826"/>
		
			<path style="fill:#EA4F87;stroke:#372772;stroke-width:9.49;stroke-linecap:round;stroke-linejoin:round;stroke-miterlimit:10;" d="
			M56.22,231.677L56.22,231.677c-5.837-0.999-9.759-6.541-8.759-12.378l6.854-40.037c0.999-5.837,6.541-9.759,12.378-8.759h0
			c5.837,0.999,9.759,6.541,8.759,12.378l-6.854,40.037C67.599,228.755,62.057,232.676,56.22,231.677z"/>
		
			<path style="fill:#EA4F87;stroke:#372772;stroke-width:9.49;stroke-linecap:round;stroke-linejoin:round;stroke-miterlimit:10;" d="
			M5.634,113.067l45.811,61.327c6.912,9.253,19.858,11.475,29.46,5.055l62.654-41.889"/>
		
			<ellipse transform="matrix(0.1687 -0.9857 0.9857 0.1687 -55.4105 174.7148)" style="fill:#EA4F87;stroke:#372772;stroke-width:9.49;stroke-linecap:round;stroke-linejoin:round;stroke-miterlimit:10;" cx="75.879" cy="120.209" rx="22.802" ry="72.061"/>
		
			<ellipse transform="matrix(0.8514 -0.5244 0.5244 0.8514 -68.2351 172.3668)" style="fill:#EA4F87;stroke:#372772;stroke-width:9.49;stroke-linecap:round;stroke-linejoin:round;stroke-miterlimit:10;" cx="270.132" cy="206.627" rx="46.826" ry="13.929"/>
		
			<path style="fill:#EA4F87;stroke:#372772;stroke-width:9.49;stroke-linecap:round;stroke-linejoin:round;stroke-miterlimit:10;" d="
			M268.676,204.263L268.676,204.263c-5.042,3.106-11.647,1.536-14.753-3.506l-21.303-34.585c-3.106-5.042-1.536-11.647,3.506-14.753
			h0c5.042-3.106,11.647-1.536,14.753,3.506l21.303,34.585C275.288,194.553,273.718,201.158,268.676,204.263z"/>
		
			<path style="fill:#EA4F87;stroke:#372772;stroke-width:9.49;stroke-linecap:round;stroke-linejoin:round;stroke-miterlimit:10;" d="
			M152.345,148.637l78.98,16.635c9.018,1.899,17.944-3.594,20.311-12.5l20.435-76.862"/>
		
			<ellipse transform="matrix(0.8514 -0.5244 0.5244 0.8514 -25.2603 126.0124)" style="fill:#EA4F87;stroke:#372772;stroke-width:9.49;stroke-linecap:round;stroke-linejoin:round;stroke-miterlimit:10;" cx="209.798" cy="107.594" rx="72.061" ry="22.802"/>
		<path style="fill:#372772;" d="M187.554,144.04l67.863-5.488l-3.613,13.591c-2.461,9.258-11.741,14.969-21.115,12.995
			l-51.718-10.893L187.554,144.04z"/>
		<path style="fill:#372772;" d="M43.641,163.947l67.274-4.562l-30.032,20.079c-9.589,6.411-22.519,4.192-29.423-5.049
			L43.641,163.947z"/>
		
			<path style="fill:#372772;stroke:#FFE7BB;stroke-width:9.49;stroke-linecap:round;stroke-linejoin:round;stroke-miterlimit:10;" d="
			M140.342,26.539"/>
		
			<path style="fill:#EA4F87;stroke:#372772;stroke-width:9.49;stroke-linecap:round;stroke-linejoin:round;stroke-miterlimit:10;" d="
			M140.739,57.92c-1.606-1.606-2.588-3.836-2.564-6.29l0.499-26.54c0.054-4.836,4.015-8.715,8.855-8.664
			c4.83,0.06,8.709,4.015,8.664,8.855l-0.499,26.54c-0.054,4.836-4.015,8.715-8.855,8.664
			C144.453,60.458,142.304,59.485,140.739,57.92z"/>
		
			<path style="fill:#EA4F87;stroke:#372772;stroke-width:9.49;stroke-linecap:round;stroke-linejoin:round;stroke-miterlimit:10;" d="
			M169.728,58.989c0.075-2.27,1.032-4.511,2.84-6.171l19.717-17.774c3.568-3.266,9.106-3.024,12.376,0.544
			c3.258,3.567,3.02,9.102-0.544,12.376L184.4,65.738c-3.568,3.266-9.106,3.024-12.376-0.544
			C170.413,63.434,169.655,61.2,169.728,58.989z"/>
		
			<path style="fill:#EA4F87;stroke:#372772;stroke-width:9.49;stroke-linecap:round;stroke-linejoin:round;stroke-miterlimit:10;" d="
			M112.541,74.568c-2.268-0.134-4.483-1.149-6.095-3L89.193,51.395c-3.172-3.652-2.786-9.182,0.866-12.358
			c3.651-3.163,9.177-2.782,12.358,0.866l17.253,20.173c3.172,3.652,2.786,9.182-0.866,12.358
			C117.003,73.999,114.75,74.699,112.541,74.568z"/>
	</g>
</g>
</svg>
