<?xml version="1.0" encoding="iso-8859-1"?>
<!-- Generator: Adobe Illustrator 25.4.0, SVG Export Plug-In . SVG Version: 6.00 Build 0)  -->
<svg version="1.1" id="Layer_1" xmlns="http://www.w3.org/2000/svg" xmlns:xlink="http://www.w3.org/1999/xlink" x="0px" y="0px"
	 viewBox="0 0 189.841 177.287" style="enable-background:new 0 0 189.841 177.287;" xml:space="preserve">
<g>
	
		<ellipse style="fill:#EA4F87;stroke:#372772;stroke-width:9.49;stroke-linecap:round;stroke-linejoin:round;stroke-miterlimit:10;" cx="49.833" cy="88.644" rx="45.088" ry="83.899"/>
	
		<ellipse style="fill:#EA4F87;stroke:#372772;stroke-width:9.49;stroke-linecap:round;stroke-linejoin:round;stroke-miterlimit:10;" cx="140.008" cy="88.644" rx="45.088" ry="83.899"/>
	<path style="fill:#372772;" d="M37.802,88.644l8.745-21.461c-3.916-4.014-8.471-6.325-13.338-6.325
		c-14.599,0-26.433,20.708-26.433,46.252c0,25.544,11.835,46.252,26.433,46.252c14.599,0,26.433-20.708,26.433-46.252
		c0-6.566-0.787-12.809-2.197-18.466H37.802z"/>
	<path style="fill:#372772;" d="M130.729,88.644l7.879-19.334c-4.305-5.317-9.553-8.451-15.223-8.451
		c-14.599,0-26.433,20.708-26.433,46.252c0,25.544,11.835,46.252,26.433,46.252s26.433-20.708,26.433-46.252
		c0-6.566-0.787-12.809-2.197-18.466H130.729z"/>
</g>
</svg>
