<?xml version="1.0" encoding="iso-8859-1"?>
<!-- Generator: Adobe Illustrator 25.4.0, SVG Export Plug-In . SVG Version: 6.00 Build 0)  -->
<svg version="1.1" id="Layer_1" xmlns="http://www.w3.org/2000/svg" xmlns:xlink="http://www.w3.org/1999/xlink" x="0px" y="0px"
	 viewBox="0 0 275.63 212.122" style="enable-background:new 0 0 275.63 212.122;" xml:space="preserve">
<g>
	
		<circle style="fill:#EA4F87;stroke:#372772;stroke-width:9.49;stroke-linecap:round;stroke-linejoin:round;stroke-miterlimit:10;" cx="133.354" cy="115.964" r="91.413"/>
	
		<path style="fill:#EA4F87;stroke:#372772;stroke-width:9.49;stroke-linecap:round;stroke-linejoin:round;stroke-miterlimit:10;" d="
		M87.647,100.728c0-8.414,6.821-15.236,15.236-15.236s15.236,6.821,15.236,15.236"/>
	
		<path style="fill:#EA4F87;stroke:#372772;stroke-width:9.49;stroke-linecap:round;stroke-linejoin:round;stroke-miterlimit:10;" d="
		M148.59,100.728c0-8.414,6.821-15.236,15.236-15.236c8.414,0,15.236,6.821,15.236,15.236"/>
	<path style="fill:#372772;" d="M148.59,131.199c0,8.414-6.821,15.236-15.236,15.236s-15.236-6.821-15.236-15.236H148.59z"/>
	
		<path style="fill:#EA4F87;stroke:#372772;stroke-width:9.49;stroke-linecap:round;stroke-linejoin:round;stroke-miterlimit:10;" d="
		M243.983,107.672c-8.278,8.477-21.912,8.477-30.19,0L194.096,87.5l0.008,0c-7.113-6.873-10.564-18.981-2.778-29.693
		c10.038-13.81,29.8-10.376,37.56,2.101h0.004c7.76-12.478,27.522-15.911,37.56-2.101c7.786,10.712,4.335,22.82-2.778,29.693
		l0.008,0L243.983,107.672z"/>
	
		<path style="fill:#EA4F87;stroke:#372772;stroke-width:9.49;stroke-linecap:round;stroke-linejoin:round;stroke-miterlimit:10;" d="
		M75.982,63.526c-8.278,8.477-21.912,8.477-30.19,0L26.094,43.354l0.008,0C18.99,36.48,15.539,24.372,23.325,13.66
		c10.038-13.81,29.8-10.376,37.56,2.101h0.004c7.76-12.478,27.522-15.911,37.56-2.101c7.786,10.712,4.335,22.82-2.778,29.693
		l0.008,0L75.982,63.526z"/>
	
		<path style="fill:#EA4F87;stroke:#372772;stroke-width:9.49;stroke-linecap:round;stroke-linejoin:round;stroke-miterlimit:10;" d="
		M61.836,192.899c-8.278,8.477-21.912,8.477-30.19,0l-19.698-20.172l0.008,0c-7.113-6.873-10.564-18.981-2.778-29.693
		c10.038-13.81,29.8-10.376,37.56,2.101h0.004c7.76-12.478,27.522-15.911,37.56-2.101c7.786,10.712,4.335,22.82-2.778,29.693
		l0.008,0L61.836,192.899z"/>
</g>
</svg>
