<?xml version="1.0" encoding="iso-8859-1"?>
<!-- Generator: Adobe Illustrator 25.4.0, SVG Export Plug-In . SVG Version: 6.00 Build 0)  -->
<svg version="1.1" id="Layer_1" xmlns="http://www.w3.org/2000/svg" xmlns:xlink="http://www.w3.org/1999/xlink" x="0px" y="0px"
	 viewBox="0 0 175.494 223.16" style="enable-background:new 0 0 175.494 223.16;" xml:space="preserve">
<g>
	
		<path style="fill:#EA4F87;stroke:#372772;stroke-width:9.49;stroke-linecap:round;stroke-linejoin:round;stroke-miterlimit:10;" d="
		M51.982,218.415c-0.41-16.166,0.699-32.897,7.945-47.354s21.862-26.178,38.029-25.826l-1.206-0.186
		c-11.96,2.168-24.487-3.504-32.491-12.652c-8.004-9.148-10.362-21.28-11.577-33.374s-1.882-23.646-1.661-35.8
		c0.595,18.46,1.113,37.441-5.148,54.817S27.07,152.719,4.745,152.719c11.145-0.592,20.383,3.141,27.99,9.693
		s12.404,15.908,14.947,25.62c2.543,9.712,2.989,19.843,3.064,29.883L51.982,218.415z"/>
	<g>
		
			<path style="fill:#EA4F87;stroke:#372772;stroke-width:9.49;stroke-linecap:round;stroke-linejoin:round;stroke-miterlimit:10;" d="
			M88.566,70.368c10.702,0.602,23.315-0.331,31.16-6.868c7.558-6.298,8.441-16.553,8.826-25.784
			c0.458-10.99,0.916-21.98,1.375-32.971c-0.947,11.33-3.064,40.016,10.877,57.429c6.389,7.98,19.823,12.483,29.946,11.062
			l-0.382,0.364c-10.284-0.94-23.612,3.841-30.384,12.29c-4.962,6.19-7.829,14.091-9.329,22.131s-1.714,16.289-1.923,24.489
			c0.965-11.002,0-33.962-6.356-46.638c-2.929-5.841-8.426-10.117-14.543-12.413C101.715,71.163,95.096,70.584,88.566,70.368z"/>
	</g>
</g>
</svg>
