<?xml version="1.0" encoding="iso-8859-1"?>
<!-- Generator: Adobe Illustrator 25.4.0, SVG Export Plug-In . SVG Version: 6.00 Build 0)  -->
<svg version="1.1" id="Layer_1" xmlns="http://www.w3.org/2000/svg" xmlns:xlink="http://www.w3.org/1999/xlink" x="0px" y="0px"
	 viewBox="0 0 235.017 235.017" style="enable-background:new 0 0 235.017 235.017;" xml:space="preserve">
<g>
	
		<circle style="fill:#EA4F87;stroke:#372772;stroke-width:9.49;stroke-linecap:round;stroke-linejoin:round;stroke-miterlimit:10;" cx="101.597" cy="133.42" r="96.852"/>
	
		<circle style="fill:#EA4F87;stroke:#372772;stroke-width:9.49;stroke-linecap:round;stroke-linejoin:round;stroke-miterlimit:10;" cx="101.597" cy="133.42" r="56.764"/>
	<circle style="fill:#372772;" cx="101.597" cy="133.42" r="21.505"/>
	
		<path style="fill:#EA4F87;stroke:#372772;stroke-width:9.49;stroke-linecap:round;stroke-linejoin:round;stroke-miterlimit:10;" d="
		M182.954,68.897l-73.543,73.543c-4.648,4.648-12.185,4.648-16.834,0l0,0c-4.648-4.648-4.648-12.185,0-16.834l73.543-73.543
		c4.648-4.648,12.185-4.648,16.834,0l0,0C187.602,56.712,187.602,64.249,182.954,68.897z"/>
	
		<polygon style="fill:#EA4F87;stroke:#372772;stroke-width:9.49;stroke-linecap:round;stroke-linejoin:round;stroke-miterlimit:10;" points="
		128.596,89.588 119.05,41.256 155.561,4.745 166.12,52.064 	"/>
	
		<polygon style="fill:#EA4F87;stroke:#372772;stroke-width:9.49;stroke-linecap:round;stroke-linejoin:round;stroke-miterlimit:10;" points="
		230.272,79.456 181.941,69.91 145.429,106.422 192.748,116.981 	"/>
</g>
</svg>
