<?xml version="1.0" encoding="iso-8859-1"?>
<!-- Generator: Adobe Illustrator 25.4.0, SVG Export Plug-In . SVG Version: 6.00 Build 0)  -->
<svg version="1.1" id="Layer_1" xmlns="http://www.w3.org/2000/svg" xmlns:xlink="http://www.w3.org/1999/xlink" x="0px" y="0px"
	 viewBox="0 0 189.594 206.376" style="enable-background:new 0 0 189.594 206.376;" xml:space="preserve">
<g>
	
		<path style="fill:#EA4F87;stroke:#372772;stroke-width:9.49;stroke-linecap:round;stroke-linejoin:round;stroke-miterlimit:10;" d="
		M166.589,201.362c0.005,0.008-21.141-106.746-71.276-132.605c0,0,15.52,66.437-27.242,132.875
		C68.07,201.631,166.511,201.23,166.589,201.362z"/>
	
		<path style="fill:#EA4F87;stroke:#372772;stroke-width:9.49;stroke-linecap:round;stroke-linejoin:round;stroke-miterlimit:10;" d="
		M98.185,68.582c-10.479-1.595-21.031-3.195-31.655-3.014s-21.443,2.252-30.361,7.482c-11.997,7.036-19.53,19.397-21.52,32.211
		s1.182,25.991,7.196,37.73L98.185,68.582"/>
	
		<path style="fill:#EA4F87;stroke:#372772;stroke-width:9.49;stroke-linecap:round;stroke-linejoin:round;stroke-miterlimit:10;" d="
		M96.46,69.576c-0.567-14.395,1.295-29.286,8.967-41.904s22.017-22.568,37.925-22.895c16.482-0.339,31.405,9.411,41.496,21.212
		L96.46,69.576z"/>
	
		<path style="fill:#EA4F87;stroke:#372772;stroke-width:9.49;stroke-linecap:round;stroke-linejoin:round;stroke-miterlimit:10;" d="
		M95.301,69.598c2.829-14.44,0.053-29.918-8.723-42.245S62.867,6.184,46.729,4.901S13.692,10.345,4.745,22.571L95.301,69.598z"/>
</g>
</svg>
