<svg xmlns="http://www.w3.org/2000/svg" width="448.872" height="82.103" viewBox="0 0 448.872 82.103" fill="#ffbbd0"><g transform="translate(102.448)"><g transform="translate(0)"><path class="a" d="M872.969,698.993a31.618,31.618,0,0,0-23.021-9.533,30.9,30.9,0,0,0-20.4,7.208v-24.2H817.393v49.548a32.555,32.555,0,1,0,65.11,0,32.571,32.571,0,0,0-2.383-12.528A31.647,31.647,0,0,0,872.969,698.993Zm-4.215,30.9a21,21,0,0,1-4.36,6.482,20.673,20.673,0,0,1-6.482,4.418,20.432,20.432,0,0,1-15.986,0,20.539,20.539,0,0,1-6.453-4.389,20.751,20.751,0,0,1-4.331-6.482,20.358,20.358,0,0,1,0-15.812,20.412,20.412,0,0,1,10.784-10.871,20.436,20.436,0,0,1,15.986,0,20.688,20.688,0,0,1,6.482,4.418,21.02,21.02,0,0,1,4.36,6.482,20.2,20.2,0,0,1,0,15.754Z" transform="translate(-817.393 -672.466)"/></g><g transform="translate(210.984 16.997)"><path class="a" d="M1097.277,700.069a32.552,32.552,0,1,0,0,46.039,31.112,31.112,0,0,0,9.534-23.019,33.462,33.462,0,0,0-2.416-12.5A31.846,31.846,0,0,0,1097.277,700.069Zm-4.215,30.9a20.963,20.963,0,0,1-4.36,6.482,20.708,20.708,0,0,1-6.482,4.417,20.419,20.419,0,0,1-15.986,0,20.5,20.5,0,0,1-6.453-4.388,20.706,20.706,0,0,1-4.33-6.483,20.336,20.336,0,0,1,0-15.814,20.451,20.451,0,0,1,10.784-10.87,20.49,20.49,0,0,1,15.986,0,20.71,20.71,0,0,1,6.482,4.423,20.949,20.949,0,0,1,4.36,6.482,20.187,20.187,0,0,1,0,15.752Z" transform="translate(-1041.699 -690.536)"/></g><g transform="translate(281.314 16.994)"><path class="a" d="M1179.167,710.588a31.939,31.939,0,0,0-7.121-10.523,32.555,32.555,0,1,0,0,46.042,31.12,31.12,0,0,0,9.534-23.02A33.488,33.488,0,0,0,1179.167,710.588Zm-11.336,20.376a21,21,0,0,1-4.36,6.482,20.672,20.672,0,0,1-6.483,4.418,20.432,20.432,0,0,1-15.986,0,20.41,20.41,0,0,1-10.784-10.871,20.344,20.344,0,0,1,0-15.812A20.412,20.412,0,0,1,1141,704.31a20.432,20.432,0,0,1,15.986,0,20.684,20.684,0,0,1,6.483,4.418,21.02,21.02,0,0,1,4.36,6.482,20.2,20.2,0,0,1,0,15.755Z" transform="translate(-1116.47 -690.533)"/></g><g transform="translate(140.656)"><path class="a" d="M1019.89,696.61a32.573,32.573,0,1,0,2.616,48.425,31.122,31.122,0,0,0,9.534-23.021V672.466h-12.15Zm-1.6,33.281a21,21,0,0,1-4.36,6.482,20.684,20.684,0,0,1-6.482,4.418,20.431,20.431,0,0,1-15.986,0,20.407,20.407,0,0,1-10.784-10.87,20.348,20.348,0,0,1,0-15.812,20.411,20.411,0,0,1,10.784-10.871,20.436,20.436,0,0,1,15.986,0,20.7,20.7,0,0,1,6.482,4.418,21.02,21.02,0,0,1,4.36,6.482,20.2,20.2,0,0,1,0,15.754Z" transform="translate(-966.93 -672.466)"/></g><g transform="translate(70.328 16.994)"><path class="a" d="M957.271,723.086a32.554,32.554,0,1,0-32.554,32.554c7.96,0,16.424-2.907,20.907-9.334v8.708h11.647l-.022-31.049C957.256,723.673,957.271,723.382,957.271,723.086Zm-32.554,20.438a20.438,20.438,0,1,1,20.438-20.437A20.461,20.461,0,0,1,924.716,743.524Z" transform="translate(-892.162 -690.533)"/></g></g><g transform="translate(0 17.264)"><path class="a" d="M769.107,690.82a20.879,20.879,0,0,0-19.468,11.992,20.88,20.88,0,0,0-19.468-11.992,22,22,0,0,0-21.7,21.878c0,23.578,22.624,42.692,41.164,42.692S790.8,736.276,790.8,712.7A22,22,0,0,0,769.107,690.82Zm3.727,22.781a23.194,23.194,0,1,1-46.389,0v-.667h8.188v.667a15.006,15.006,0,0,0,30.012,0v-.667h8.189Z" transform="translate(-708.476 -690.82)"/></g></svg>