<svg height="11.333" viewBox="0 0 14.302 11.333" width="14.302" xmlns="http://www.w3.org/2000/svg"><path d="m2081.958 440.262c-.239.283-.464.565-.761.954a7.458 7.458 0 0 0 -.646-.588 4.529 4.529 0 0 0 -2.965-1.076v-1.212a5.733 5.733 0 0 1 3.725 1.344 8.36 8.36 0 0 1 .646.579zm6.606-.219a4.524 4.524 0 0 0 -2.909 1.076 8.765 8.765 0 0 0 -1.168 1.162c-.32.374-.605.742-1.09 1.391l-.235.315c-.461.617-.746.984-1.062 1.356a9.6 9.6 0 0 1 -1.209 1.214 5.043 5.043 0 0 1 -3.3 1.232v-1.213a3.837 3.837 0 0 0 2.535-.957 12.534 12.534 0 0 0 2.069-2.358l.235-.315c.5-.67.8-1.054 1.139-1.453a10 10 0 0 1 1.33-1.319 5.729 5.729 0 0 1 3.669-1.344v-1.237c0-.191.132-.264.294-.164l2.909 1.8a.2.2 0 0 1 0 .365l-2.909 1.8c-.163.1-.294.027-.294-.164zm0 6.041v-1.214c0-.191.132-.264.294-.164l2.909 1.8a.2.2 0 0 1 0 .365l-2.909 1.8c-.163.1-.294.027-.294-.164v-1.207a5.043 5.043 0 0 1 -3.248-1.231 8.179 8.179 0 0 1 -.7-.649l.165-.22.114-.153.075-.1.046-.062c.127-.169.237-.317.336-.447a7.233 7.233 0 0 0 .732.694 3.844 3.844 0 0 0 2.479.956z" fill="#370f7b" transform="translate(-2077.587 -437.384)"/></svg>