<?xml version="1.0" encoding="utf-8"?>
<!-- Generator: Adobe Illustrator 25.4.1, SVG Export Plug-In . SVG Version: 6.00 Build 0)  -->
<svg version="1.1" id="Layer_1" xmlns="http://www.w3.org/2000/svg" xmlns:xlink="http://www.w3.org/1999/xlink" x="0px" y="0px"
	 viewBox="0 0 225.6 236.1" style="enable-background:new 0 0 225.6 236.1;" xml:space="preserve">
<style type="text/css">
	.st0{fill:#370E7B;stroke:#FFE7BA;stroke-width:9.49;stroke-linecap:round;stroke-linejoin:round;stroke-miterlimit:10;}
	.st1{fill:none;stroke:#FFE7BA;stroke-width:9.49;stroke-linecap:round;stroke-linejoin:round;stroke-miterlimit:10;}
	.st2{fill:#EA4F87;stroke:#FFE7BA;stroke-width:9.49;stroke-linecap:round;stroke-linejoin:round;stroke-miterlimit:10;}
</style>
<g>
	<path class="st0" d="M166.7,109c12-2.4,24.9-4.7,36.1,0.4c13.2,6,20.4,22.1,17.4,36.3s-15.3,25.5-29.5,28.9
		c-14.1,3.3-29.5-0.8-40.9-9.7c-7.3-5.7-13.1-13-18.9-20.2c-3-3.8-6-7.6-9.3-11.2c-2.3-2.5-8.6-6.3-9.8-9.1
		c-2.2-5.1,1.3-4.5,6.5-5.6c5.4-1.2,10.9-2.2,16.4-3.3C145.3,113.2,156,111.1,166.7,109z"/>
	<path class="st0" d="M88.9,95.6C77.7,81,70.4,62,53.8,54.1c-13.1-6.2-30-3.1-40,7.5s-12,27.7-5,40.4c6.5,11.6,19.3,18.6,32.3,21.1
		s26.5,1.3,39.7,0.1c7.5-0.7,28.6,1,33.3-5.2C105.9,110.2,96.1,105,88.9,95.6z"/>
	<path class="st0" d="M74.4,146c-13.4,9.2-26.5,21.4-29.1,37.4c-2.7,16.3,7.7,33.7,23.3,39.1s34.6-1.8,42.6-16.2
		c6.1-11,6-24.3,5.5-36.9c-0.2-7,1.7-48.1-4.3-49.9c-4.4-1.3-13.8,10.1-17,12.4C88.6,136.9,81.3,141.3,74.4,146z"/>
	<path class="st0" d="M139.3,96.9c11.8-10.3,24-21.3,28.9-36.1c4.7-14.1,1.6-30.5-8-41.7C150.5,7.8,134.5,2.4,120,5.7
		S93.5,21.3,90.6,35.8c-2.5,12.7,1.5,25.6,5.4,37.9c2.5,7.6,4.9,15.3,7.4,22.9c1.2,3.7,4.2,21,7.5,22.6
		C116.2,121.8,134.8,100.4,139.3,96.9z"/>
	<path class="st1" d="M121.7,136.5c-1.6,11.4,3,22.9,9.1,32.7s13.8,18.6,19.4,28.8c5.6,10.1,8.9,22.3,5.3,33.3"/>
	<path class="st2" d="M124.8,46.8c-4.6,11.6-4.8,24.3-5.6,36.7c-0.8,12.4-2.6,25.3-9.8,35.5"/>
	<path class="st2" d="M49.4,94.8c19.7,7.6,39.3,15.3,59,22.9"/>
	<path class="st2" d="M187.1,141.6c-4.3-4.7-11.1-6.1-17.4-6.3s-12.8,0.5-18.9-1.1c-5.7-1.5-10.8-4.8-16-7.5s-11.1-4.9-16.9-3.9"/>
	<path class="st2" d="M82.5,183.8c-1.9-7.7,3.9-15,8.6-21.4c10-13.4,17.1-28.9,20.8-45.2"/>
</g>
</svg>
