<?xml version="1.0" encoding="utf-8"?>
<!-- Generator: Adobe Illustrator 25.4.1, SVG Export Plug-In . SVG Version: 6.00 Build 0)  -->
<svg version="1.1" id="Layer_1" xmlns="http://www.w3.org/2000/svg" xmlns:xlink="http://www.w3.org/1999/xlink" x="0px" y="0px"
	 viewBox="0 0 275.6 212.1" style="enable-background:new 0 0 275.6 212.1;" xml:space="preserve">
<style type="text/css">
	.st0{fill:#370E7B;stroke:#FFE7BA;stroke-width:9.49;stroke-linecap:round;stroke-linejoin:round;stroke-miterlimit:10;}
	.st1{fill:#FFE7BA;}
</style>
<g>
	<circle class="st0" cx="133.4" cy="116" r="91.4"/>
	<path class="st0" d="M87.6,100.7c0-8.4,6.8-15.2,15.2-15.2s15.2,6.8,15.2,15.2"/>
	<path class="st0" d="M148.6,100.7c0-8.4,6.8-15.2,15.2-15.2s15.2,6.8,15.2,15.2"/>
	<path class="st1" d="M148.6,131.2c0,8.4-6.8,15.2-15.2,15.2s-15.2-6.8-15.2-15.2H148.6z"/>
	<path class="st0" d="M244,107.7c-8.3,8.5-21.9,8.5-30.2,0l-19.7-20.2l0,0c-7.1-6.9-10.6-19-2.8-29.7c10-13.8,29.8-10.4,37.6,2.1
		l0,0c7.8-12.5,27.5-15.9,37.6-2.1c7.8,10.7,4.3,22.8-2.8,29.7l0,0L244,107.7z"/>
	<path class="st0" d="M76,63.5c-8.3,8.5-21.9,8.5-30.2,0L26.1,43.4l0,0c-7.1-6.9-10.6-19-2.8-29.7c10-13.8,29.8-10.4,37.6,2.1l0,0
		c7.8-12.5,27.5-15.9,37.6-2.1c7.8,10.7,4.3,22.8-2.8,29.7l0,0L76,63.5z"/>
	<path class="st0" d="M61.8,192.9c-8.3,8.5-21.9,8.5-30.2,0l-19.7-20.2l0,0c-7.1-6.9-10.6-19-2.8-29.7c10-13.8,29.8-10.4,37.6,2.1
		l0,0c7.8-12.5,27.5-15.9,37.6-2.1c7.8,10.7,4.3,22.8-2.8,29.7l0,0L61.8,192.9z"/>
</g>
</svg>
