<?xml version="1.0" encoding="utf-8"?>
<!-- Generator: Adobe Illustrator 25.4.1, SVG Export Plug-In . SVG Version: 6.00 Build 0)  -->
<svg version="1.1" id="Layer_1" xmlns="http://www.w3.org/2000/svg" xmlns:xlink="http://www.w3.org/1999/xlink" x="0px" y="0px"
	 viewBox="0 0 175.5 223.2" style="enable-background:new 0 0 175.5 223.2;" xml:space="preserve">
<style type="text/css">
	.st0{fill:#370E7B;stroke:#FFE7BA;stroke-width:9.49;stroke-linecap:round;stroke-linejoin:round;stroke-miterlimit:10;}
</style>
<g>
	<path class="st0" d="M52,218.4c-0.4-16.2,0.7-32.9,7.9-47.4s21.9-26.2,38-25.8l-1.2-0.2c-12,2.2-24.5-3.5-32.5-12.7
		S53.9,111.1,52.7,99S50.8,75.4,51,63.2c0.6,18.5,1.1,37.4-5.1,54.8s-18.8,34.7-41.1,34.7c11.1-0.6,20.4,3.1,28,9.7
		s12.4,15.9,14.9,25.6c2.5,9.7,3,19.8,3.1,29.9L52,218.4z"/>
	<g>
		<path class="st0" d="M88.6,70.4c10.7,0.6,23.3-0.3,31.2-6.9c7.6-6.3,8.4-16.6,8.8-25.8c0.5-11,0.9-22,1.4-33
			c-0.9,11.3-3.1,40,10.9,57.4c6.4,8,19.8,12.5,29.9,11.1l-0.4,0.4c-10.3-0.9-23.6,3.8-30.4,12.3c-5,6.2-7.8,14.1-9.3,22.1
			s-1.7,16.3-1.9,24.5c1-11,0-34-6.4-46.6c-2.9-5.8-8.4-10.1-14.5-12.4C101.7,71.2,95.1,70.6,88.6,70.4z"/>
	</g>
</g>
</svg>
