<?xml version="1.0" encoding="utf-8"?>
<!-- Generator: Adobe Illustrator 25.4.1, SVG Export Plug-In . SVG Version: 6.00 Build 0)  -->
<svg version="1.1" id="Layer_1" xmlns="http://www.w3.org/2000/svg" xmlns:xlink="http://www.w3.org/1999/xlink" x="0px" y="0px"
	 viewBox="0 0 235 235" style="enable-background:new 0 0 235 235;" xml:space="preserve">
<style type="text/css">
	.st0{fill:#370E7B;stroke:#FFE7BA;stroke-width:9.49;stroke-linecap:round;stroke-linejoin:round;stroke-miterlimit:10;}
	.st1{fill:#FFE7BA;}
</style>
<g>
	<circle class="st0" cx="101.6" cy="133.4" r="96.9"/>
	<circle class="st0" cx="101.6" cy="133.4" r="56.8"/>
	<circle class="st1" cx="101.6" cy="133.4" r="21.5"/>
	<path class="st0" d="M183,68.9l-73.5,73.5c-4.6,4.6-12.2,4.6-16.8,0l0,0c-4.6-4.6-4.6-12.2,0-16.8l73.5-73.5
		c4.6-4.6,12.2-4.6,16.8,0l0,0C187.6,56.7,187.6,64.2,183,68.9z"/>
	<polygon class="st0" points="128.6,89.6 119.1,41.3 155.6,4.7 166.1,52.1 	"/>
	<polygon class="st0" points="230.3,79.5 181.9,69.9 145.4,106.4 192.7,117 	"/>
</g>
</svg>
