<?xml version="1.0" encoding="utf-8"?>
<!-- Generator: Adobe Illustrator 25.4.1, SVG Export Plug-In . SVG Version: 6.00 Build 0)  -->
<svg version="1.1" id="Layer_1" xmlns="http://www.w3.org/2000/svg" xmlns:xlink="http://www.w3.org/1999/xlink" x="0px" y="0px"
	 viewBox="0 0 189.6 206.4" style="enable-background:new 0 0 189.6 206.4;" xml:space="preserve">
<style type="text/css">
	.st0{fill:#370E7B;stroke:#FFE7BA;stroke-width:9.49;stroke-linecap:round;stroke-linejoin:round;stroke-miterlimit:10;}
</style>
<g>
	<path class="st0" d="M166.6,201.4c0,0-21.1-106.7-71.3-132.6c0,0,15.5,66.4-27.2,132.9C68.1,201.6,166.5,201.2,166.6,201.4z"/>
	<path class="st0" d="M98.2,68.6c-10.5-1.6-21-3.2-31.7-3S45.1,67.8,36.2,73c-12,7-19.5,19.4-21.5,32.2s1.2,26,7.2,37.7L98.2,68.6"
		/>
	<path class="st0" d="M96.5,69.6c-0.6-14.4,1.3-29.3,9-41.9s22-22.6,37.9-22.9c16.5-0.3,31.4,9.4,41.5,21.2L96.5,69.6z"/>
	<path class="st0" d="M95.3,69.6c2.8-14.4,0.1-29.9-8.7-42.2S62.9,6.2,46.7,4.9s-33,5.4-42,17.7L95.3,69.6z"/>
</g>
</svg>
